# xmcd CD database file
#
# Track frame offsets:
#	150
#	14163
#	28308
#	47954
#	70598
#	83297
#	97379
#	117657
#	131253
#	150112
#	165596
#	183249
#	203865
#	218650
#	241101
#
# Disc length: 3430 seconds
#
# Revision: 0
# Processed by: cddbd v1.5.1PL0 Copyright (c) Steve Scherf et al.
# Submitted via: CDex 1.51
#
DISCID=c40d640f
DTITLE=Luzer - Reset
DYEAR=2004
DGENRE=Rock
TTITLE0=Gimme Everything
TTITLE1=I Want You To Know
TTITLE2=Come On Manny
TTITLE3=When She Cries
TTITLE4=Hey Jodie!
TTITLE5=Baby Blue
TTITLE6=Your Sorry
TTITLE7=Breakin' Down
TTITLE8=Six Ate
TTITLE9=Untitled (Track 10)
TTITLE10=I Didn't Even Know
TTITLE11=So Long
TTITLE12=I Can't Believe
TTITLE13=Her Majesty
TTITLE14=She
EXTD=YEAR: 2004
EXTT0=
EXTT1=
EXTT2=
EXTT3=
EXTT4=
EXTT5=
EXTT6=
EXTT7=
EXTT8=
EXTT9=
EXTT10=
EXTT11=
EXTT12=
EXTT13=
EXTT14=
PLAYORDER=
